# xmcd
#
# Track frame offsets: 
#        150
#        21644
#        41479
#        57418
#        71617
#        91096
#        106908
#        120056
#        137369
#        148231
#        168590
#        186701
#        207092
#        221645
#        241289
#        262485
#
# Disc length: 3760 seconds
#
# Revision: 0
# Processed by: cddbd v1.5.2PL0 Copyright (c) Steve Scherf et al.
# Submitted via: ExactAudioCopy v0.99pb3
#
DISCID=f50eae10
DTITLE=Mark Hummel - Retro-Active
DYEAR=2010
DGENRE=Blues
TTITLE0=Funky Way
TTITLE1=The Price Of Love
TTITLE2=Never No More
TTITLE3=One More Time
TTITLE4=Roller Coaster
TTITLE5=I'm Shorty
TTITLE6=My Baby's So Sweet
TTITLE7=Honey Bee Blues
TTITLE8=I Want To Be Loved
TTITLE9=Strange Things Happening
TTITLE10=Ready Steady Stroll
TTITLE11=Lord Oh Lord Blues
TTITLE12=Highway Rhumba
TTITLE13=Before The Beginning
TTITLE14=It's My Life Baby
TTITLE15=Can't Be Successful
EXTD=
EXTT0=
EXTT1=
EXTT2=
EXTT3=
EXTT4=
EXTT5=
EXTT6=
EXTT7=
EXTT8=
EXTT9=
EXTT10=
EXTT11=
EXTT12=
EXTT13=
EXTT14=
EXTT15=
PLAYORDER=
